<svg x="0" y="0" width="103" height="103" viewBox="0, 0, 103, 103"><path d="M100 0 H23 H0 H42 V71 Q92 100 70 62 " stroke="black" stroke-width="5" fill="none"/></svg>
<svg x="0" y="0" width="103" height="103" viewBox="0, 0, 103, 103"><path d="M37 3 Q26 100 1 92 L85 0 L100 37 H94 H0 Z" stroke="black" stroke-width="5" fill="none"/></svg>
<svg x="0" y="0" width="103" height="103" viewBox="0, 0, 103, 103"><path d="M1 100 L100 61 H6 L0 0 Q1 47 80 5 Q18 46 72 88 " stroke="black" stroke-width="5" fill="none"/></svg>
<svg x="0" y="0" width="103" height="103" viewBox="0, 0, 103, 103"><path d="M19 40 H0 Q30 75 57 72 L100 100 Q36 46 59 100 V0 Z" stroke="black" stroke-width="5" fill="none"/></svg>
<svg x="0" y="0" width="103" height="103" viewBox="0, 0, 103, 103"><path d="M100 0 L0 94 V6 H91 H91 V100 " stroke="black" stroke-width="5" fill="none"/></svg>